<?xml version="1.0" encoding="utf-8"?>
<!-- Generator: Adobe Illustrator 26.3.1, SVG Export Plug-In . SVG Version: 6.00 Build 0)  -->
<svg version="1.1" id="Layer_1" xmlns="http://www.w3.org/2000/svg" xmlns:xlink="http://www.w3.org/1999/xlink" x="0px" y="0px"
	 viewBox="0 0 1000 1000" style="enable-background:new 0 0 1000 1000;" xml:space="preserve">
<g>
	<polygon points="509.9,286.1 478.5,254.8 232.5,500 263.9,531.3 478.4,745.2 509.8,713.9 317.6,522.1 745,522.1 745,477.8 
		317.6,477.8 	"/>
	<path d="M500,10C229.4,10,10,229.4,10,500s219.4,490,490,490s490-219.4,490-490S770.6,10,500,10z M500,945.5
		C254,945.5,54.5,746,54.5,500S254,54.5,500,54.5S945.5,254,945.5,500S746,945.5,500,945.5z"/>
</g>
</svg>
