<?xml version="1.0" encoding="UTF-8"?><svg id="Layer_2" xmlns="http://www.w3.org/2000/svg" viewBox="0 0 2086.57 1735.2"><defs><style>.cls-1{fill:none;}</style></defs><g id="Layer_1-2"><g><polygon class="cls-1" points="1505.68 780.42 1476.42 1040.82 1298.24 1040.82 1299.1 780.42 1505.68 780.42"/><polygon class="cls-1" points="1300.4 388.14 1549.75 388.14 1520.25 650.73 1299.53 650.73 1300.4 388.14"/><polygon class="cls-1" points="1680.24 388.14 1933.36 388.14 1871.61 650.73 1650.74 650.73 1680.24 388.14"/><polygon class="cls-1" points="1841.11 780.42 1779.88 1040.82 1606.92 1040.82 1636.17 780.42 1841.11 780.42"/><polygon class="cls-1" points="1168.58 1040.82 1003.09 1040.82 970.88 780.42 1169.45 780.42 1168.58 1040.82"/><polygon class="cls-1" points="824.18 650.73 592.04 650.73 526.86 388.14 791.7 388.14 824.18 650.73"/><polygon class="cls-1" points="1169.88 650.73 954.84 650.73 922.37 388.14 1170.75 388.14 1169.88 650.73"/><polygon class="cls-1" points="872.43 1040.82 688.88 1040.82 624.24 780.42 840.22 780.42 872.43 1040.82"/><path d="M0,64.91c0,35.84,29.05,64.92,64.92,64.92H333.29l328.54,1323.47c1.94,7.81,5.2,14.91,9.38,21.21,9.12,17.47,25.02,29.13,43.24,29.13h70.84c-40.02,20.1-67.55,61.42-67.55,109.25,0,67.56,54.75,122.3,122.3,122.3,67.53,0,122.28-54.74,122.28-122.3,0-47.83-27.53-89.15-67.54-109.25h684.65c-40.02,20.1-67.55,61.42-67.55,109.25,0,67.56,54.75,122.3,122.29,122.3,67.53,0,122.28-54.74,122.28-122.3,0-47.83-27.53-89.15-67.55-109.25h130.63c28.36,0,51.38-28.13,51.38-62.8,0-34.69-23.02-62.83-51.38-62.83H772.58l-51.52-207.53H1829.29v-.08c34.02,3.49,66.29-19.15,74.49-53.95l180.48-767.55c1.31-5.56,1.85-11.11,1.84-16.57,.29-2.3,.48-4.63,.48-7,0-34.68-32.4-62.81-72.37-62.81H495.68l-51.99-209.43c-.18-.72-.43-1.41-.64-2.12C436.67,21.83,410.74,0,379.67,0H64.92C29.05,0,0,29.06,0,64.91ZM1871.61,650.73h-220.87l29.5-262.59h253.12l-61.75,262.59Zm-264.69,390.1l29.25-260.4h204.94l-61.23,260.4h-172.96Zm-86.67-390.1h-220.72l.87-262.59h249.35l-29.5,262.59Zm-222.01,390.1l.86-260.4h206.57l-29.26,260.4h-178.18Zm-327.36-260.4h198.56l-.86,260.4h-165.5l-32.2-260.4Zm-48.52-392.28h248.38l-.87,262.59h-215.03l-32.48-262.59Zm-298.13,392.28h215.98l32.21,260.4h-183.55l-64.64-260.4Zm-97.38-392.28h264.84l32.48,262.59h-232.14l-65.18-262.59Z"/></g></g></svg>