<?xml version="1.0" encoding="UTF-8"?>
<svg id="Layer_1" data-name="Layer 1" xmlns="http://www.w3.org/2000/svg" viewBox="0 0 256 256">
  <defs>
    <style>
      .cls-1 {
        opacity: .7;
      }

      .cls-2 {
        opacity: .55;
      }

      .cls-3 {
        opacity: .5;
      }

      .cls-4 {
        opacity: .3;
      }

      .cls-5 {
        opacity: .34;
        stroke: #000;
        stroke-miterlimit: 10;
        stroke-width: .25px;
      }
    </style>
  </defs>
  <polygon class="cls-4" points="185.36 157.93 218.71 118.56 225.3 115.1 224.86 113.83 225.8 112.16 228.14 110.99 230.19 110.16 230.64 106.21 116.24 48.76 110.07 48.38 107.03 49.17 105.19 50.46 104.44 52.76 102.19 51.96 94.99 53.76 59.68 92.9 22.48 105.44 132.39 178.56 134.92 179.99 137.48 181.1 139.42 181.1 140.51 180.83 179.1 165.33 185.36 157.93"/>
  <polygon class="cls-2" points="62.61 126.16 61.61 93.99 62.69 90.36 65.88 88.62 70.79 87.39 186.68 156.39 179.1 165.33 145.05 179.07 62.61 126.16"/>
  <polygon class="cls-3" points="140.51 180.83 139.42 181.1 137.48 181.1 134.92 179.99 132.48 178.6 22.48 105.44 23.7 140.16 23.98 141.21 133.42 219.21 134.98 220.33 138.37 220.83 140.42 220.49 140.51 180.83 140.51 180.83"/>
  <polygon class="cls-1" points="218.71 118.56 179.1 165.33 140.51 180.83 140.51 180.83 140.42 220.49 219.03 185.99 219.2 184.44 221.09 182.6 225.3 115.1 218.71 118.56"/>
  <line class="cls-5" x1="104.44" y1="52.76" x2="103.43" y2="106.82"/>
</svg>