<?xml version="1.0" encoding="UTF-8"?>
<svg id="Layer_1" data-name="Layer 1" xmlns="http://www.w3.org/2000/svg" viewBox="0 0 256 256">
  <path d="M30.26,24.28c-4.49.68-8.47-1.38-12.93-2.4-.89-.2-2.98.38-3.69-.06-.84-.51-1.56-2.72-2.37-3.54-3.04-3.06-6.48-5.64-8.54-9.71,4.77.19,8.83,1.7,12.34,2.5,1,.23,3.36.23,4.22.37.96.15,1.3,2.17,2.02,3.15,3.18,3.07,5.91,5.44,8.96,9.7Z"/>
  <path d="M41.28,221.84c-4.06,3.07-5.76,7.29-10.58,8.89.5-4.82,2.17-8.51,2.57-12.42l.4-3.96c.1-.96,2.57-1.3,3.25-2.01,3.3-3.43,5.72-6.75,9.96-8.83-1.28,12.13-2,4.62-2.84,16.55-.05.69-1.85,1.09-2.76,1.78Z"/>
  <path d="M119.58,202.9c-4.46.43-8.8-2.24-12.84-2.58l-4.04-.34c-.96-.08-1.32-2.32-2.12-3.1-3.33-3.27-6.21-5.85-8.98-9.87,9.19.3,5.32,1.6,16.77,2.85.98.11,1.39,2.43,2.16,3.17,3.31,3.18,6.14,5.56,9.05,9.87Z"/>
  <path d="M75.1,203.19c-4.74-.3-8.97-2.42-13.3-2.85l-4-.4c-.82-.08-1.04-2.42-1.66-2.99-3.44-3.24-6.59-5.96-9.19-10.11,4.55.38,8.91,2.39,13.18,2.79l4.03.38c.82.08,1.09,2.3,1.6,2.98,3.51,3.33,6.6,5.96,9.33,10.23Z"/>
  <path d="M208.87,186.36c.64-4.54,2.01-9.41,2.93-12.94.22-.85-.06-2.67.04-3.37.11-.84,2.45-1.39,3.11-2.03,3.28-3.21,5.99-6.89,10.19-9.1-.08,4.66-1.82,8.6-2.4,12.79-.51,3.66-.86,4.26-3.78,6.25-3.52,2.39-5.17,6.87-10.09,8.41Z"/>
  <path d="M74.73,24.04c-4.84,1.31-8.41-1.54-13.08-2.12-1-.12-2.88-.06-3.71-.25s-1.2-2.58-1.81-3.21c-3.11-3.18-6.86-5.64-8.56-9.83,4.77.25,8.16,1.96,11.98,2.41l4.41.51c.94.11,1.34,2.45,2.05,3.14,3.1,3,5.56,5.16,8.73,9.36Z"/>
  <path d="M164.17,158.23c-4.67.27-8.65-2.27-12.92-2.47l-3.75-.18c-.97-.05-1.57-2.64-2.34-3.42-3.18-3.23-6.73-5.53-8.54-9.84,4.93.44,8.57,2.32,12.62,2.66l3.81.32c.96.08,1.42,2.52,2.17,3.23,3.2,3.06,6.03,5.58,8.95,9.69Z"/>
  <path d="M30.34,113.74c-5.23-.08-8.67-1.52-12.72-2.57-.99-.26-3.58-.04-4.38-.55s-1.24-2.33-1.96-3.1c-3.27-3.11-5.96-5.55-8.72-9.55,4.56-.32,8.69,2.18,12.8,2.44l3.89.25c.98.06,1.53,2.69,2.34,3.46,3.13,3,6.2,5.62,8.75,9.63Z"/>
  <path d="M30.78,97.08c.25-5.15,2.07-8.49,2.5-12.69l.39-3.83c.1-.96,2.57-1.36,3.25-2.06,3.35-3.46,5.69-6.69,9.96-8.86-.51,5.21-1.81,9.1-2.93,13.27-.25.92.51,3.09-.17,3.6s-2.61,1.4-3.3,2.04c-2.94,2.72-5.39,6.69-9.71,8.52Z"/>
  <path d="M253.22,247.47c-4.98.26-8.83-1.64-12.46-2.41-.98-.21-3.33-.22-4.19-.34-.96-.14-1.3-2.12-2.03-3.13-3.28-3.16-6.2-5.72-9.01-9.84,4.58-.27,8.47,1.42,13,2.53.84.2,2.87-.1,3.67.14.94.29,1.56,2.75,2.29,3.45,3.2,3.06,6.3,5.62,8.72,9.59Z"/>
  <path d="M208.66,247.33c-4.56.45-8.34-1.75-12.27-2.19l-4.48-.5c-.94-.11-1.32-2.46-2.04-3.15-3.25-3.11-5.96-5.49-8.85-9.56,4.9-.73,8.7,1.44,13.19,2.51.83.2,3.23-.62,3.67.09l2,3.21c2.09,3.36,6.21,5.86,8.78,9.59Z"/>
  <path d="M164.1,202.94c-8.82-.07-5.35-1.73-16.66-2.83-.98-.1-1.34-2.46-2.08-3.17-3.48-3.37-6.59-5.56-9.07-10.17,4.61.57,8.8,2.37,12.84,2.8l4.01.42c.96.1,1.32,2.36,2.1,3.12,3.21,3.18,6,5.47,8.86,9.83Z"/>
  <path d="M75.66,186.43c-.86-4.5,1.5-8.44,2.23-12.42.18-.97.06-3.08.16-3.91.11-.97,2.58-1.56,3.3-2.28,3.3-3.31,5.77-6.63,10.05-8.9-.3,4.63-1.63,8.67-2.69,12.94-.2.81-.16,3.08-.31,3.9s-2.39,1.1-2.99,1.7c-3.02,3.07-5.38,5.97-9.76,8.97Z"/>
  <path d="M164.21,24.54c-4.79.06-8.73-2.42-12.9-2.59l-3.79-.15c-.96-.04-1.54-2.67-2.35-3.48-3.01-3.02-6.67-5.51-8.55-9.76,4.89.38,8.63,1.63,12.53,2.53.88.21,3.17.22,4.03.34.97.14,1.23,2.6,1.96,3.29,3.35,3.12,6.21,5.57,9.06,9.82Z"/>
  <path d="M253.35,158.27c-4.9.08-8.51-2.23-13-2.52l-3.74-.24c-.85-.05-1.39-2.44-2.05-3.13-3.13-3.24-6.84-5.73-8.84-10.04,11.12,1.05,4.66,1.57,16.52,2.92.95.11,1.29,2.14,1.99,3.11,3.32,3.19,6.12,5.6,9.12,9.9Z"/>
  <path d="M119.41,157.86c-4.78,1.31-8.39-1.52-13.12-2.16-.98-.13-2.78.03-3.59-.2s-1.37-2.5-1.99-3.1c-3.18-3.1-6.26-6.07-9.11-9.75,9.45-.43,5.31,1.87,16.78,2.51.97.05,1.27,2.29,2.03,3.09,3.1,3.09,5.62,5.37,9,9.61Z"/>
  <path d="M74.95,158.31c-5.28.01-9.03-1.58-13.23-2.65-.93-.24-3.1.34-3.76-.2s-1.29-2.5-1.99-3.2c-2.98-2.94-6.15-5.85-8.86-9.71,4.96-.26,8.86,1.56,13.02,2.5.88.2,3.09.07,3.84.29.9.27,1.31,2.45,2.02,3.14,3.39,3.32,6.19,5.68,8.96,9.83Z"/>
  <path d="M30.29,158.33c-4.76,0-8.62-2.37-12.79-2.57l-3.84-.19c-.98-.05-1.51-2.69-2.32-3.47-3.17-3.04-6.51-5.65-8.62-9.75,5.08.34,8.53,1.58,12.66,2.69,1.01.27,3.71-.27,4.21.49l2.16,3.27c2.25,3.4,5.97,5.4,8.55,9.53Z"/>
  <path d="M209.54,52.53c-.89-4.64,1.36-8.34,2.38-13.03.19-.87-.62-3.14.08-3.59l3.28-2.12c3.42-2.21,5.76-6.69,9.94-8.61.56,1.76-4.22,17.38-3.06,16.67l-3.33,2.04c-2.77,3.02-4.85,5.66-9.29,8.65Z"/>
  <path d="M253.24,113.76c-5.26-.19-8.47-1.44-12.71-2.62-.93-.26-3.73.28-4.24-.48l-2.09-3.15c-2.45-3.68-5.86-5.58-8.65-9.52,4.42-.4,8.53,2.23,12.73,2.44l3.91.19c.99.05,1.54,2.71,2.34,3.48,3.13,3.01,6.26,5.54,8.7,9.65Z"/>
  <path d="M75.03,69.44c-4.71-.6-8.7-2.43-13.34-2.93l-3.84-.41c-.81-.09-1.1-2.3-1.67-2.92-3.24-3.1-6.16-5.67-9.09-9.82,4.78-.46,8.89,2.09,13.02,2.48l4.03.39c.96.09,1.21,2.57,1.92,3.24,3.43,3.21,6.26,5.41,8.96,9.98Z"/>
  <path d="M120.1,141.98c-.31-4.76,2.42-8.74,2.57-13.02l.12-3.67c.03-.95,2.68-1.53,3.35-2.23,3.19-3.34,5.74-6.23,9.72-8.85-.01,4.71-2.53,8.84-2.66,12.97l-.11,3.72c-.03.94-2.65,1.52-3.34,2.24-3.09,3.21-5.54,6.02-9.65,8.85Z"/>
  <path d="M208.55,69.01c-4.39.39-8.6-2.11-12.84-2.47l-4.08-.35c-.83-.07-1.03-2.28-1.51-3-3.56-3.25-6.69-5.89-9.38-10.19,4.78.39,8.94,2.29,13.31,2.84l3.9.49c.8.1,1.1,2.3,1.7,2.89,3.07,3.04,5.99,5.12,8.89,9.79Z"/>
  <path d="M253.25,69.02c-4.24.45-8.6-1.46-12.61-2.46-.9-.22-3.19-.23-4.09-.36-.96-.14-1.3-2.34-2.08-3.1-3.32-3.26-6.21-5.7-9.01-9.93,4.43,0,8.72,1.55,12.69,2.59.9.24,3.24.24,4.09.4.97.18,1.41,2.37,2.18,3.14,3.14,3.12,5.77,5.23,8.83,9.73Z"/>
  <path d="M208.73,202.79c-4.78.55-8.88-1.64-13.1-2.49-.97-.19-3.12-.17-3.94-.28s-1.07-2.49-1.74-3.14c-3.11-2.98-6.75-5.73-9.07-10.12,4.57.57,8.77,2.4,13.24,2.91l3.88.44c.81.09,1.13,2.34,1.72,2.95,3.21,3.08,6.15,5.7,9.02,9.73Z"/>
  <path d="M119.36,247.5c-5.15-.04-8.69-1.57-12.64-2.47-.87-.2-3.19-.14-4-.27-.97-.16-1.29-2.65-2.02-3.33-3.45-3.19-6.45-5.76-9.02-9.88,4.74.22,8.77,1.58,12.92,2.66.89.23,2.91-.01,3.74.16.96.2,1.58,2.7,2.34,3.44,3.12,3.07,6.36,5.6,8.69,9.69Z"/>
  <path d="M209.34,141.89c-.49-4.41,2.38-8.41,2.5-12.88l.1-3.71c.02-.84,2.5-1.36,3.09-1.99,3.09-3.23,5.96-6.39,9.85-9.14.39,4.49-1.49,9.01-2.3,12.59-.22.97-.2,3.35-.33,4.19-.14.94-2.13,1.27-3.12,1.97-3.12,3.19-5.44,6-9.79,8.96Z"/>
  <path d="M119.49,113.44c-5.05.75-8.74-1.46-13.33-2.51-.89-.21-3.05.59-3.49-.1l-2.05-3.19c-2.27-3.53-6.46-5.97-8.96-9.74,4.65-.18,8.7,2.33,12.96,2.52l3.71.16c.97.04,1.58,2.68,2.36,3.42,3.04,2.9,5.92,5.54,8.8,9.43Z"/>
  <path d="M164.82,231.01c-.75-4.47,1.49-8.36,2.35-12.89.16-.82.2-3.06.3-3.9s2.37-1.06,2.97-1.66c3.21-3.37,6.07-6.6,10.1-9.26-.02,4.47-1.53,8.63-2.63,12.75-.23.87.01,3.04-.11,3.87-.15.97-2.66,1.55-3.38,2.3-2.92,3.02-5.36,6.01-9.6,8.79Z"/>
  <path d="M133.24,220.07c.05-1.37-10.55,9.68-12.76,11.06-1.27-4.8,1.37-8.63,2.27-13.17.17-.86-.62-3.17.08-3.61l3.1-1.97c3.69-2.35,5.65-6.55,10.02-8.75-.81,11.77-2.27,4.98-2.71,16.44Z"/>
  <path d="M119.59,69.12c-4.57.1-8.72-2.09-12.86-2.53l-4.02-.42c-.96-.1-1.33-2.41-2.09-3.15-3.34-3.24-6.23-5.72-8.99-9.88,9.45.38,5.67,1.88,16.78,2.95.98.09,1.41,2.41,2.17,3.14,3.29,3.21,6.03,5.57,9.02,9.89Z"/>
  <path d="M130.15,177.43c-3.76,3.41-5.86,6.94-10.31,8.98.37-4.94,1.83-9.36,2.81-12.93.29-1.06-.38-3.42.3-3.94s2.54-1.3,3.22-1.98c2.83-2.84,5.89-6.32,9.61-8.76.34,4.72-1.65,9.23-2.57,12.9-.2.8.07,2.78,0,3.5-.08.85-2.15,1.41-3.06,2.24Z"/>
  <path d="M75.3,52.85c.06-4.37,1.55-8.66,2.52-12.61.23-.93.25-3.15.38-4.08.14-1,2.4-1.43,3.18-2.23,3.22-3.29,5.72-6.22,9.84-8.94.24,4.8-2.04,8.47-2.52,13.13l-.39,3.79c-.08.82-2.33,1.14-2.91,1.73-3.2,3.29-5.73,6.37-10.11,9.2Z"/>
  <path d="M130.15,43.65c-3.75,3.42-5.94,6.81-10.29,8.98.33-4.91,1.71-9.03,2.83-13.07.27-.96-.49-3.28.17-3.84s2.62-1.29,3.28-1.96c2.89-2.91,5.97-6.34,9.57-8.76.56,4.74-1.7,9.37-2.53,13.04-.19.84.09,2.7.04,3.4-.05.84-2.24,1.44-3.08,2.21Z"/>
  <path d="M164.97,52.7c-1.33-4.99,1.74-8.44,2.2-13.14l.38-3.83c.08-.83,2.44-1.07,3.04-1.7,3.05-3.16,5.71-6.57,10.03-9.01-.28,4.75-1.69,8.86-2.75,12.87-.25.94.26,3.49-.34,4.09s-1.84,1.15-3,1.73c-2.94,3.06-5.38,5.75-9.57,8.99Z"/>
  <path d="M30.86,141.94c-.15-5.18,1.62-8.84,2.42-12.65.19-.91.24-3.11.37-4.05s2.08-1.27,3.08-1.98c3.2-3.31,5.63-6.32,9.97-8.99-.06,4.39-2.43,8.47-2.62,12.85l-.17,3.75c-.04.84-2.47,1.41-3.08,2.03-3.2,3.27-5.83,6.42-9.96,9.05Z"/>
  <path d="M208.37,113.8c-5.14-.34-8.67-2.33-12.72-2.65l-3.79-.3c-.93-.07-1.28-2.49-1.98-3.16-3.23-3.12-5.96-5.54-8.84-9.49,4.36-.95,8.47,1.36,12.57,2.2.93.19,3.04.05,3.9.13.99.09,1.55,2.65,2.25,3.37,3.22,3.3,6.52,5.44,8.61,9.9Z"/>
  <path d="M164.12,69.21c-4.64-.18-8.53-1.58-13.41-2.72-.8-.19-2.96-.18-3.74-.42s-1.02-2.42-1.65-3.01c-3.09-2.92-6.16-5.66-9.03-9.73,4.49-.4,8.64,2.1,12.86,2.51l4,.38c.96.09,1.31,2.32,2.1,3.1,3.22,3.19,5.98,5.36,8.88,9.9Z"/>
  <path d="M164.34,113.52c-7.42.92-9.29-2.85-17.47-2.79-2.17-5.9-7.49-6.53-10.43-12.99,4.91.29,8.62,1.61,12.95,2.74.84.22,2.95-.18,3.73.17s1.35,2.42,2.01,3.09c3.14,3.21,6.05,6.15,9.21,9.77Z"/>
  <path d="M219.51,222.23c-3.63,2.59-5.74,6.31-10.14,8.84-1.31-5.84,3.39-9.96,2.54-16.68l3.97-2.67c2.76-2.96,5.36-5.71,8.95-8.28.71,5.22-1.8,8.74-2.19,13.16-.27,3.14-.51,3.76-3.13,5.63Z"/>
  <path d="M75.77,231.01c-1.09-4.22,1.57-7.91,2.05-12.16l.51-4.52c.11-.98,2.56-1.39,3.26-2.14,3.16-3.36,5.69-6.1,9.68-8.84.11,4.5-2.16,8.68-2.6,13.19l-.38,3.9c-.08.8-2.39,1.05-2.95,1.65-2.91,3.09-5.35,5.98-9.57,8.91Z"/>
  <path d="M30.35,247.41c-5.3.38-8.58-1.95-12.76-2.34l-3.95-.37c-.95-.09-1.32-2.07-2.04-3.07-3.32-3.19-6.26-5.8-9.02-9.89,4.51-.24,8.44,2.26,12.84,2.49l3.84.2c.85.04,1.39,2.49,2.1,3.19,3.05,2.99,6.26,5.94,8.99,9.79Z"/>
  <path d="M164.55,141.8c-.05-4.06,1.51-8.53,2.57-12.54.22-.83.14-3.19.29-3.98.18-.95,2.3-1.35,3.09-2.13,3.28-3.24,5.82-6.1,9.91-9,.24,4.52-2.08,8.53-2.49,12.85l-.38,3.95c-.09.98-2.51,1.36-3.23,2.11-3.13,3.29-5.28,6.23-9.77,8.73Z"/>
  <path d="M74.69,247.37c-5.21.09-7.8-1.04-11.53-2.25l-5.36-.44c-2.35-6.21-7.42-6.38-10.6-13.19,5.04.4,8.86,1.72,13.03,2.79.94.24,3.06-.26,3.78.21s1.28,2.5,1.96,3.18c3.01,3.03,6.32,5.67,8.71,9.69Z"/>
  <path d="M133.2,86.26c.17-1.62-11.25,10.6-12.9,11.11-.91-4.73,1.39-8.75,2.43-13,.23-.94-.61-3.37.1-3.82l3.11-2c3.74-2.41,5.57-6.56,10.08-8.75-.35,4.71-1.88,9.38-2.77,12.94-.22.88.03,2.8-.04,3.53Z"/>
  <path d="M85.59,88.2c-3.66,3.5-5.94,6.52-10.39,9.2.38-4.88,1.68-8.72,2.72-13,.21-.84.13-3.12.38-3.89.31-.93,2.52-1.33,3.23-2.08,3.16-3.29,5.56-6.06,9.64-8.84.1,9.73-1.56,4.37-2.64,16.58-.07.83-2.01,1.25-2.94,2.04Z"/>
  <path d="M164.25,247.22c-4.68.85-8.66-1.35-12.67-2.13-.93-.18-3.17-.21-4.03-.31-.96-.12-1.42-2.31-2.18-3.07-3.19-3.19-5.81-5.82-9.19-9.67,5.12-1.11,8.47,1.5,13.23,2.22.92.14,2.87,0,3.71.2s1.33,2.49,1.99,3.14c3.11,3.06,6.23,6.15,9.14,9.62Z"/>
  <path d="M164.83,97.25c-.79-4.45,2.16-8.48,2.41-12.83l.22-3.95c.05-.95,2.6-1.26,3.28-1.98,3.27-3.51,5.79-6.37,9.8-9.03-.66,9.75-1.46,5.27-2.9,16.73-.12.97-2.18,1.37-3.1,2.14-3.1,3.13-5.45,5.97-9.71,8.92Z"/>
  <path d="M242.52,11.55c3.12,6.27,7.53,6.66,10.76,13.16-4.83-.4-8.75-2.48-12.83-2.72l-3.86-.23c-.84-.05-1.35-2.5-1.99-3.12-3.21-3.1-6.26-6.01-9.2-9.77,6.96-.98,9.09,2.7,17.12,2.68Z"/>
  <path d="M119.41,24.08c-4.72,1.27-8.25-1.85-12.98-2.12l-3.7-.22c-.84-.05-1.3-2.45-1.98-3.12-3.08-3.04-6.25-6.1-9.15-9.78,4.65-.5,8.55,1.29,12.75,2.3.81.2,3.14.02,3.91.27.92.3,1.49,1.96,2.16,3.16,3.11,2.9,5.72,5.31,8.98,9.5Z"/>
  <path d="M41.19,43.42c-3.54,3.35-5.94,6.41-10.49,9.45.26-4.79,2.03-8.33,2.53-12.69l.5-4.35c.11-.94,2.55-1.26,3.27-2.01,3.16-3.3,5.63-6.31,9.81-8.84-.87,11.63-2.01,4.84-2.76,16.46-.05.84-2.23,1.37-2.86,1.97Z"/>
  <path d="M164.85,186.43c-.87-7.78,1.71-5.17,2.49-16.4.07-.98,2.32-1.39,3.13-2.19,3.4-3.35,5.7-6.45,10.13-9.05-.28,4.93-2.35,8.7-2.73,13.14l-.33,3.83c-.07.82-2.36,1.13-3,1.78-2.85,2.92-5.39,5.91-9.69,8.88Z"/>
  <path d="M197.79,11.58c3.58,6.61,7.17,6.18,10.9,13.12-5.26-.44-8.81-1.69-13.15-2.82-.86-.22-2.99.23-3.74-.19s-1.3-2.47-1.95-3.12c-2.91-2.91-5.54-5.54-8.76-9.23,3.42-2.44,9.99,2.51,16.69,2.23Z"/>
  <path d="M31.55,186.32c-2.02-4.39,1.42-7.95,1.7-12.29l.25-3.96c.06-.98,2.34-1.37,3.11-2.13,3.4-3.38,5.84-6.35,10.14-9.17-.17,4.96-1.61,9.22-2.8,13.06-.27.88.61,3.39-.09,3.82l-3.04,1.87c-2.89,2.92-5.25,5.41-9.27,8.8Z"/>
  <path d="M197.8,145.25c3.36,6.7,7.42,6.39,10.79,13.16-11.68-.72-4.48-2.04-16.36-2.67-.87-.05-1.38-2.26-2.08-2.98-3.14-3.25-6.11-6.07-9.33-10.1,7.74-.96,9.2,3.12,16.98,2.59Z"/>
  <path d="M219.53,88.39l-10.18,8.98c-.33-4.49,1.11-8.31,2.51-12.5l-.1-4.24c6.82-3.7,5.92-6.11,12.98-11.07,1.05,5.41-1.92,8.79-2.14,13.24-.15,3.2-.71,3.5-3.08,5.59Z"/>
  <path d="M74.92,113.23c-5.25,1.38-8.92-1.64-13.29-2.25-.73-.1-2.53.06-3.26.03-.87-.04-1.46-2.39-2.18-3.1-2.97-2.96-6.07-5.94-9.05-9.64,4.69-1.12,8.25,1.31,12.66,2.17.83.16,2.84.04,3.69.1.98.07,1.77,2.51,2.51,3.25,3.02,3.05,5.76,5.76,8.92,9.44Z"/>
  <path d="M30.33,203.04c-4.19.05-8.71-1.61-12.62-2.63-.95-.25-3.28-.22-4.09-.38-.97-.19-1.38-2.4-2.14-3.14-3.28-3.2-6.06-5.46-8.99-9.87,4.42-.07,8.63,1.6,12.76,2.58.92.22,3.18.24,4.04.38.95.16,1.33,2.33,2.11,3.1,3.29,3.27,6.22,5.72,8.93,9.96Z"/>
  <path d="M30.33,69.25c-4.24-.13-8.59-2.27-12.65-2.65l-4.05-.38c-.97-.09-1.39-2.34-2.16-3.1-3.27-3.19-5.98-5.71-9.09-9.8,4.62-.5,9.1,1.64,12.74,2.47,1.03.23,3.35.26,4.17.38.97.15,1.35,2.37,2.12,3.12,3.32,3.27,6.26,5.66,8.92,9.95Z"/>
  <path d="M253.25,202.9c-4.22.33-8.58-1.5-12.66-2.56-.81-.21-3.22-.17-4.03-.31-.96-.17-1.31-2.34-2.1-3.12-3.31-3.27-6.24-5.7-9-9.97,4.29.11,8.67,1.56,12.71,2.65.84.23,3.23.2,4.06.35.98.17,1.35,2.4,2.13,3.16,3.23,3.17,6.08,5.46,8.89,9.8Z"/>
  <path d="M85.57,133.15c-3.74,2.53-5.66,6.59-10.31,8.74.21-4.25,2.2-8.29,2.65-12.75l.39-3.9c.1-.97,2.38-1.33,3.14-2.1,3.18-3.25,5.77-5.98,9.68-8.99.68,4.69-1.71,8.48-2.28,12.85-.44,3.31-.34,4.18-3.27,6.16Z"/>
  <path d="M123.39,261.78c-.75-.02-1.1-2.86-.45-3.19,7.37-3.7,4.77-5.51,12.87-10.63.05,5.41-1.38,9.22-3.27,14.03l-9.16-.21Z"/>
  <path d="M33.62,261.95c-1.45-3.97,1.62-3.48,3.08-4.93,3.34-3.33,5.92-6.46,10.14-9.05-.36,5.44-1.64,9.27-3.36,14.07l-9.86-.09Z"/>
  <path d="M253.84,141.86c-.54-7.12,3.02-9.12,2.8-17l4.9-2.75c-.17,11.88,2.99,12.89-7.7,19.76Z"/>
  <path d="M133.25-2.85c-10.39,7.44-3.52,4.02-13.23,11.1-.02-5.55,1.34-9.35,3.41-14.09l9.17.26c.6.02,1.14,2.39.65,2.74Z"/>
  <path d="M-.7,131.24l-4.91,2.68c-.06-10.98-2.77-13.67,7.79-19.45-.28,4.81-1.43,8.3-2.74,12.16l-.14,4.62Z"/>
  <path d="M167.54,261.92c-1.84-3.76,1.58-3.5,3.01-4.94,3.31-3.33,5.91-6.42,10.04-9.01-.29,5.3-1.62,9.29-3.25,14.08l-9.8-.14Z"/>
  <path d="M41.21-1.1c-4.29,2.65-6.16,6.43-10.45,9.41.05-5.36,1.48-9.49,3.38-14.2l9.4.3c.36.61,1.01,2.43.54,2.72l-2.87,1.77Z"/>
  <path d="M78.98,261.9c-.75-.01-1.35-2.64-.8-3,8.82-5.7,3.92-4.35,12.97-11.09.32,5.37-1.32,9.59-3.36,14.26l-8.81-.16Z"/>
  <path d="M88.52-2.77c-9.31,6.33-4.5,5.14-13.26,11.07.24-5.48,1.53-9.24,3.41-14.15l9.2.23c.61.02,1.16,2.51.65,2.85Z"/>
  <path d="M219.37-1.06c-3.72,3.62-6.08,6.69-10.33,9.29.22-5.4,1.51-9.23,3.51-14.06l9.18.2c.6.01,1.14,2.66.61,2.95l-2.97,1.62Z"/>
  <path d="M174.89-1.14c-3.58,3.45-6.06,6.64-10.38,9.3.1-5.01,1.48-8.97,3.31-13.95l9.1.09c.69,0,1.34,2.68.74,3.01l-2.77,1.54Z"/>
  <path d="M-.63,175.62l-4.98,3.01c-.07-11.75-2.9-12.91,7.54-19.63.89,6.71-3.08,8.93-2.56,16.62Z"/>
  <path d="M254.13,186.47c-1.33-6.76,3.06-9.04,2.35-16.85l5.1-3.01.19,12.98c-2.32,2.44-4.15,4.2-7.64,6.88Z"/>
  <path d="M212.53,261.67c-.75-.08-1.03-2.82-.39-3.09,6.02-2.54,5.53-5.95,12.74-10.56.22,5.26-1.25,9.03-3.02,13.96-2.67,0-6.86-.05-9.33-.31Z"/>
  <path d="M253.93,230.9c-.82-7.03,3.17-9.12,2.54-16.54l5.14-3.05c-.48,11.59,3.23,12.79-7.68,19.6Z"/>
  <path d="M253.93,97.13c-.85-6.78,3.16-9.22,2.55-16.56l5.04-3.05c-.08,11.73,2.95,12.96-7.58,19.6Z"/>
  <path d="M-.62,86.6l-5.02,2.68c.05-11.02-2.81-13.56,7.74-19.35.37,7.56-3.52,9.44-2.71,16.67Z"/>
  <path d="M254,52.67c-.46-4.86,1.16-8.24,2.45-12.27l-.04-4.58,5.17-2.87.17,12.85c-2.34,2.49-4.18,4.26-7.75,6.87Z"/>
  <path d="M-.64,220.46l-5.04,2.81c.15-11.67-2.92-13.24,7.7-19.52.01,4.31-1.2,8.09-2.57,12.06l-.09,4.65Z"/>
  <path d="M-.49,41.73l-5.14,3.12c.05-11.78-2.87-13.19,7.63-19.56.89,6.69-3.7,9.93-2.48,16.45Z"/>
  <path d="M261.81,1.34c-2.67,2.63-4.83,4.62-8.17,6.99.29-5.34,1.63-9.53,3.4-14.21l4.48.22.29,7Z"/>
  <path d="M-5.51,261.89c-1.8-7.32,1.64-10.37,7.73-13.65-.5,5.37-1.68,9.08-3.24,13.58l-4.5.07Z"/>
</svg>