<?xml version="1.0" encoding="UTF-8"?>
<svg id="Layer_1" data-name="Layer 1" xmlns="http://www.w3.org/2000/svg" viewBox="0 0 256 256">
  <defs>
    <style>
      .cls-1 {
        opacity: .7;
      }

      .cls-2 {
        opacity: .5;
      }
    </style>
  </defs>
  <polygon class="cls-2" points="279.85 263.53 107.29 150 65.85 168.89 64.85 170.44 60.85 189.78 189.96 285.22 279.85 263.53"/>
  <polygon class="cls-2" points="284.36 262.44 114.45 152.64 115.2 148.01 115.74 147.31 218.25 98.86 219.02 98.86 347.14 168.24 284.36 262.44"/>
  <polygon class="cls-2" points="284.61 131.71 222.61 98.31 222.61 95.39 222.92 94.97 255.42 79.82 256.54 79.82 311.6 107.68 284.61 131.71"/>
  <polygon points="220.61 94.73 221.61 93.38 254 78.28 199.53 50.64 117.89 85.6 117.34 86.25 117.34 89.74 168.44 120.19 217.8 96.86 219.52 96.86 220.61 97.45 220.61 94.73"/>
  <polygon class="cls-1" points="59.81 193.04 59.81 190.93 7.71 151.82 7.15 152.58 7.15 154.54 59.81 193.04"/>
  <polygon class="cls-2" points="158.03 263.97 60.66 191.47 60.66 194.06 156.36 265.03 158.03 263.97"/>
  <polygon class="cls-1" points="76.18 211.93 76.18 207.1 26.02 169.68 26.02 174.85 76.18 211.93"/>
  <polygon class="cls-2" points="77.47 208.92 77.47 215.51 147.1 267.92 151.16 263.53 77.47 208.92"/>
  <polygon points="114.6 94.25 118.76 92.01 166.81 120.88 161.88 123.2 114.6 94.25"/>
  <g>
    <polygon points="159.96 123.1 106.04 90.85 11.88 130.76 64.49 167.31 107.47 147.72 112.66 151.14 113.3 147.2 114.44 145.71 160.02 124.17 159.96 123.1"/>
    <polygon class="cls-1" points="10.96 131.71 7.71 150.47 59.12 188.25 62.97 169.68 64.49 167.31 11.88 130.76 10.96 131.71"/>
  </g>
</svg>