<?xml version="1.0" encoding="UTF-8"?>
<svg id="Layer_1" data-name="Layer 1" xmlns="http://www.w3.org/2000/svg" viewBox="0 0 256 256">
  <defs>
    <style>
      .cls-1 {
        opacity: .5;
      }
    </style>
  </defs>
  <g class="cls-1">
    <polygon points="75.67 162.74 75.43 153.43 72.52 151.97 72.52 151.01 67.11 148.27 63.86 147.27 12.92 178.15 75.67 162.74"/>
    <polygon points="38.71 187.19 33.12 187.44 21.98 187.21 11.78 185.36 6.33 182.15 5.44 182.69 -37.7 158.36 -37.7 186.77 15.66 219.27 23.83 217.02 38.41 225.19 77.25 214.36 76.75 181.23 38.71 187.19"/>
  </g>
  <polygon points="247.19 141.69 225.19 131.86 93.37 163.42 94.68 164.97 95.11 166.91 95.11 172.69 94.12 172.85 93.97 173.54 103.02 177.36 106.69 183.52 113.02 185.52 247.19 151.02 248.86 144.69 247.19 141.69"/>
  <polygon points="48.02 42.19 -38.5 55.86 -38.5 80.67 82.91 134.89 82.91 151.06 91.92 161.71 224.92 129.87 226.14 104.75 48.02 42.19"/>
  <polygon points="77.02 142.69 77.26 145.92 79.64 147.19 80.91 148.7 80.91 136.19 -38.5 82.86 -38.5 87 75.36 139.86 77.02 142.69"/>
  <polygon class="cls-1" points="73.52 151.36 73.52 146.19 78.36 148.77 92.83 165.88 93.11 167.13 93.11 171 92.44 171.11 91.22 176.91 89.36 178.25 38.61 186.19 33.11 186.44 22.08 186.22 12.14 184.41 6.11 180.86 76.69 163.52 76.41 152.8 73.52 151.36"/>
  <polygon class="cls-1" points="11.89 176.44 63.59 145.1 63.68 145.12 63.68 144.55 70.34 143.55 70.34 139.05 -37.49 88.88 -37.49 128 -37.49 156.18 5.4 180.37 11.89 176.44"/>
  <polygon class="cls-1" points="253.35 139.86 245.44 135.12 223.42 126.8 223.42 115.56 214.65 132.32 225.39 129.75 248.62 140.14 251 144.42 248.83 152.67 205.57 163.79 227.94 173.3 259.94 165.47 260.97 136.85 253.35 139.86"/>
  <polygon class="cls-1" points="228.12 105.02 233.11 106.8 269.99 115.64 282.73 112.5 279.19 92.22 95.7 33.59 53.81 40.2 53.81 42.1 228.21 103.35 228.12 105.02"/>
  <polygon class="cls-1" points="225.42 111.31 230.76 112.97 241.87 124.64 284.2 114.2 290.87 116.42 287.42 122.64 282.42 126.2 253.53 137.64 246.31 133.31 225.42 125.42 225.42 111.31"/>
  <polygon class="cls-1" points="231.86 111.24 227.96 109.92 228.23 107.14 238.14 110.06 265.76 116.69 242.52 122.42 231.86 111.24"/>
</svg>