<?xml version="1.0" encoding="UTF-8"?>
<svg id="Layer_1" data-name="Layer 1" xmlns="http://www.w3.org/2000/svg" viewBox="0 0 256 256">
  <defs>
    <style>
      .cls-1 {
        fill: #2d2d2d;
      }
    </style>
  </defs>
  <polygon points="102.22 78.36 99.6 85.67 95.16 88.31 96.86 155.25 101.13 164.4 104.12 164.4 102.22 78.36"/>
  <polygon points="171.68 74.37 169.11 71.42 164.54 72.02 165.42 145.21 169.6 153.8 172.61 153.34 171.68 74.37"/>
  <path d="M224.72,56.11l-5.17-1.4-4.43.57.09.61,1.49.53.87,4.7-172.53,18.26.58-4.47-3.76-1.19-3.55-.19-4.25.48-23.25,115.29,5.13,2.52,230.51-37.39-21.72-98.33ZM174.43,154.88l-5.87.91-4.94-10.15v-.67s-57.94,8.68-57.94,8.68l.28,12.56h-5.98l-4.92-10.54v-.44s-67.48,10.11-67.48,10.11l12.06-58.48,13.19-13.48,40.53-4.81-.03-1.26,4.8-2.86,2.4-6.7,3.5.57v.41s58.72-6.58,58.72-6.58l-.02-1.7,7.12-.94,3.64,4.18.06,5.41,30.98-3.22,11.49,9.5,9.17,40.01-6.55,11.34-44.34,6.64.14,11.52Z"/>
  <g>
    <polygon class="cls-1" points="95.07 155.67 95.06 155.24 27.58 165.34 25.48 176.07 99.27 164.67 95.07 155.67"/>
    <polygon class="cls-1" points="233.91 134.43 174.29 143.36 174.41 153.06 237.91 143.25 233.91 134.43"/>
    <polygon class="cls-1" points="163.62 145.64 163.61 144.97 105.68 153.64 105.9 163.64 167.73 154.09 163.62 145.64"/>
  </g>
</svg>