<?xml version="1.0" encoding="UTF-8"?>
<svg id="Layer_1" data-name="Layer 1" xmlns="http://www.w3.org/2000/svg" viewBox="0 0 256 256">
  <polygon points="51.57 107.88 61.59 106.21 62.01 116.74 51.57 107.88"/>
  <polygon points="196.77 92.88 205.68 80.04 196.07 81.93 196.77 92.88"/>
  <polygon points="69.37 104.63 63.29 105.71 62.58 105.86 63.1 118.98 58.45 115.03 60.27 178.58 65.69 180.33 70.76 178.69 69.37 104.63"/>
  <polygon points="59.63 179.99 65.27 182.21 71.69 180.33 71.69 187.52 65.27 189.1 59.63 186.52 59.63 179.99"/>
  <polygon points="47.27 108.87 216.11 78.27 214.97 71.71 209.77 70.66 46.88 98.81 47.27 108.87"/>
  <polygon points="46.42 112.83 45.83 97.54 33.5 93.29 32.21 94.42 32.88 109.71 44.59 114.04 46.42 112.83"/>
  <polygon points="187.07 149.49 192.66 151.29 197.88 149.76 197.88 156.1 192.77 157.32 187.07 155.13 187.07 149.49"/>
  <polygon points="197.66 91.56 196.95 81.27 188.71 82.88 187.5 148.58 192.67 150.25 197.22 148.91 198.58 90.32 197.66 91.56"/>
  <polygon points="211.64 79.85 202.5 66.05 204.7 63.66 218.76 66.93 224.7 80.3 223.26 82.63 211.64 79.85"/>
  <polygon points="212.26 78.97 222.79 81.49 223.57 80.23 218.04 67.79 205.04 64.76 203.77 66.15 212.26 78.97"/>
</svg>