<?xml version="1.0" encoding="UTF-8"?>
<svg id="Layer_1" data-name="Layer 1" xmlns="http://www.w3.org/2000/svg" viewBox="0 0 256 256">
  <defs>
    <style>
      .cls-1 {
        fill: #000002;
      }
    </style>
  </defs>
  <path class="cls-1" d="M130.58,76.11c-25.4,0-46.06,20.66-46.06,46.06,0,10.41,3.41,20.23,9.86,28.42,1.24,1.57,2.57,3.11,3.85,4.61,3.84,4.46,7.47,8.67,8.76,13.41.03.1.27,1.1.24,4.48v.49c-.05,2.75-.1,6.51,2.69,9.33,1.91,1.93,4.58,2.87,8.17,2.87h24.91c3.88,0,6.66-.95,8.52-2.9,2.51-2.64,2.34-6.05,2.23-8.31-.02-.4-.04-.8-.05-1.2-.04-3.39.21-4.35.22-4.39,1.31-4.74,5.56-9.73,9.31-14.14,1.25-1.47,2.43-2.86,3.53-4.26,6.45-8.18,9.86-18.01,9.86-28.42,0-25.4-20.66-46.06-46.06-46.06Z"/>
  <path class="cls-1" d="M142.03,189.98h-22.91c-4.95,0-8.97,4.02-8.97,8.97v6.88c0,4.95,4.02,8.97,8.97,8.97h22.91c4.95,0,8.97-4.02,8.97-8.97v-6.88c0-4.95-4.02-8.97-8.97-8.97ZM141.72,205.52h-22.29v-6.26h22.29v6.26Z"/>
  <path class="cls-1" d="M130.58,70.11c2.56,0,4.64-2.08,4.64-4.64v-19.04c0-2.56-2.08-4.64-4.64-4.64s-4.64,2.08-4.64,4.64v19.04c0,2.56,2.08,4.64,4.64,4.64Z"/>
  <path class="cls-1" d="M191.61,63.19c-1.77-1.85-4.7-1.92-6.56-.15l-14.09,13.44c-1.85,1.77-1.92,4.71-.15,6.56.91.96,2.13,1.44,3.36,1.44,1.15,0,2.3-.43,3.2-1.28l14.09-13.44c1.85-1.77,1.92-4.71.15-6.56Z"/>
  <path class="cls-1" d="M205.44,109.59h0l-18.13.03c-2.56,0-4.64,2.08-4.63,4.65,0,2.56,2.08,4.63,4.64,4.63h0l18.13-.03c2.56,0,4.64-2.08,4.63-4.65,0-2.56-2.08-4.63-4.64-4.63Z"/>
  <path class="cls-1" d="M87.98,81.8c1.77-1.85,1.7-4.79-.15-6.56l-14.09-13.44c-1.85-1.77-4.79-1.7-6.56.15-1.77,1.85-1.7,4.79.15,6.56l14.09,13.44c.9.86,2.05,1.28,3.2,1.28,1.22,0,2.45-.48,3.36-1.44Z"/>
  <path class="cls-1" d="M69.64,109.62l-18.13-.03h0c-2.56,0-4.64,2.07-4.64,4.63,0,2.56,2.07,4.64,4.63,4.65l18.13.03h0c2.56,0,4.64-2.07,4.64-4.63,0-2.56-2.07-4.64-4.63-4.65Z"/>
</svg>