<?xml version="1.0" encoding="UTF-8"?>
<svg id="Layer_1" data-name="Layer 1" xmlns="http://www.w3.org/2000/svg" viewBox="0 0 256 256">
  <defs>
    <style>
      .cls-1 {
        fill: none;
      }

      .cls-2 {
        opacity: .7;
      }

      .cls-3 {
        opacity: .4;
      }

      .cls-4 {
        opacity: .5;
      }
    </style>
  </defs>
  <g>
    <polygon class="cls-1" points="134.61 101.96 135.77 102.49 135.77 96.43 134.61 95.99 134.61 101.96"/>
    <polygon class="cls-1" points="118.61 95.24 119.77 95.77 119.77 89.71 118.61 89.27 118.61 95.24"/>
    <polygon class="cls-1" points="126.34 90.89 125.57 92.39 126.31 93.94 127.95 94.15 128.92 92.61 128.04 90.89 126.34 90.89"/>
    <polygon class="cls-1" points="142.06 97.61 141.29 99.11 142.04 100.66 143.68 100.87 144.65 99.33 143.76 97.61 142.06 97.61"/>
    <polygon class="cls-1" points="151.11 108.79 152.27 109.32 152.27 103.27 151.11 102.82 151.11 108.79"/>
    <polygon class="cls-1" points="110.41 84.39 109.64 85.89 110.39 87.44 112.03 87.65 112.99 86.11 112.11 84.39 110.41 84.39"/>
    <polygon class="cls-1" points="80.8 72.39 80.03 73.89 80.77 75.44 82.41 75.65 83.38 74.11 82.5 72.39 80.8 72.39"/>
    <polygon class="cls-1" points="88.33 83.02 89.49 83.54 89.49 77.49 88.33 77.04 88.33 83.02"/>
    <polygon class="cls-1" points="95.08 78.44 94.31 79.95 95.05 81.49 96.69 81.7 97.66 80.16 96.78 78.44 95.08 78.44"/>
    <polygon class="cls-1" points="159.12 104.44 158.35 105.95 159.09 107.49 160.73 107.7 161.7 106.16 160.82 104.44 159.12 104.44"/>
    <polygon class="cls-1" points="103.22 89.02 104.38 89.54 104.38 83.49 103.22 83.04 103.22 89.02"/>
    <polygon class="cls-1" points="194.9 119.32 194.13 120.82 194.87 122.37 196.51 122.58 197.48 121.04 196.6 119.32 194.9 119.32"/>
    <polygon class="cls-1" points="230.47 134.25 229.59 132.53 227.89 132.53 227.12 134.04 227.86 135.59 229.5 135.79 230.47 134.25"/>
    <polygon class="cls-1" points="236.47 137.97 235.7 139.47 236.45 141.02 238.09 141.23 239.05 139.69 238.17 137.97 236.47 137.97"/>
    <polygon class="cls-1" points="230.26 135.79 229.49 137.3 230.24 138.85 231.88 139.05 232.85 137.51 231.97 135.79 230.26 135.79"/>
    <polygon class="cls-1" points="235.44 134.71 233.74 134.71 232.97 136.21 233.72 137.76 235.36 137.97 236.33 136.43 235.44 134.71"/>
    <polygon class="cls-1" points="168.27 115.79 169.44 116.32 169.44 110.27 168.27 109.82 168.27 115.79"/>
    <polygon class="cls-1" points="186.05 123.24 187.22 123.77 187.22 117.71 186.05 117.27 186.05 123.24"/>
    <polygon class="cls-1" points="176.73 111.82 175.96 113.32 176.7 114.87 178.34 115.08 179.31 113.54 178.43 111.82 176.73 111.82"/>
    <polygon class="cls-1" points="204.66 130.85 205.83 131.38 205.83 125.32 204.66 124.88 204.66 130.85"/>
    <polygon class="cls-1" points="224.74 133.43 223.97 134.93 224.72 136.48 226.36 136.69 227.33 135.15 226.44 133.43 224.74 133.43"/>
    <polygon class="cls-1" points="214.12 126.93 213.35 128.43 214.09 129.98 215.73 130.19 216.7 128.65 215.82 126.93 214.12 126.93"/>
    <polygon points="147.53 198.03 248.86 152.59 245.04 159.49 200.96 179.91 199.13 179.41 189.29 183.74 187.54 185.99 152.54 202.41 147.53 198.03"/>
  </g>
  <polygon class="cls-4" points="136.18 28.31 134.11 12.95 133.78 12.12 133.17 11.84 22.38 12.08 -14.68 21.2 -6.44 34.54 52.9 36.66 55.9 53.1 60.9 53.1 64.68 52.21 57.59 51.48 136.18 28.31"/>
  <polygon class="cls-4" points="166.38 44.17 165.8 43.53 147.04 37.15 117.9 45.73 140.94 54.09 142.61 53.61 169.22 58.42 166.38 44.17"/>
  <polygon class="cls-4" points="142.71 55.66 140.86 56.19 114.66 46.68 77.74 57.54 74.64 57.54 70.95 56.12 69.41 54.4 64.87 54.22 61.13 55.1 54.23 55.1 51.22 38.6 25.63 37.69 25.91 46.34 139.08 92 156.24 86.02 156.24 63.11 162.99 59.33 142.71 55.66"/>
  <polygon class="cls-3" points="149.45 29.6 137.28 29.43 136.61 29.08 136.18 28.31 57.59 51.48 64.68 52.21 70.34 52.43 72.12 54.43 75.01 55.54 77.45 55.54 149.61 34.31 150.43 33.66 150.43 31.2 149.45 29.6"/>
  <path d="M146.68,190.35l-12.11-16.22-2.11-1.78-91.66-43.54-2.09.74-2.01.57-1.77-.8-5.78-2.9.11.21-.97,1.54-1.64-.21-.74-1.55.05-.1-2.26.75-1.3-.4-1.8-.89v4.01l-1.17-.53v-4.05l-29.49-14.49.91-5.65-13.71-6.51,18.63,20.67,151.78,78.79-.85-7.68ZM35.66,137.72l-1.17-.53v-5.97l1.17.44v6.06ZM43.99,136.1l-1.64-.21-.74-1.55.77-1.5h1.7l.88,1.72-.97,1.54ZM52.08,146.14l-1.17-.53v-5.97l1.17.44v6.06ZM60.66,144.52l-1.64-.21-.74-1.55.77-1.5h1.7l.88,1.72-.97,1.54ZM68.83,154.8l-1.17-.53v-5.97l1.17.44v6.06ZM77.62,153.44l-1.64-.21-.74-1.55.77-1.5h1.7l.88,1.72-.97,1.54ZM86.66,163.88l-1.17-.53v-5.97l1.17.44v6.06ZM95.53,162.44l-1.64-.21-.74-1.55.77-1.5h1.7l.88,1.72-.97,1.54ZM104.74,172.79l-1.17-.53v-5.97l1.17.44v6.06ZM114.24,171.85l-1.64-.21-.74-1.55.77-1.5h1.7l.88,1.72-.97,1.54ZM124.68,179.35l-1.64-.21-.74-1.55.77-1.5h1.7l.88,1.72-.97,1.54ZM126.47,178.22l-.74-1.55.77-1.5h1.7l.88,1.72-.97,1.54-1.64-.21ZM130.59,182.18l-1.64-.21-.74-1.55.77-1.5h1.7l.88,1.72-.97,1.54ZM132.03,181.48l-.74-1.55.77-1.5h1.7l.88,1.72-.97,1.54-1.64-.21ZM136.56,185.44l-1.64-.21-.74-1.55.77-1.5h1.7l.88,1.72-.97,1.54Z"/>
  <path class="cls-2" d="M58.27,85.61l1.39,36.52-18.86,6.68,91.66,43.54,2.11,1.78,12.11,16.22.85,7.68,101.33-45.45-.61-1.06.03-5.64-7.75-10.4-1.29-.83L75.89,67.72l-.12,12.35M51.77,78.39,82.41,75.65l-1.64-.21-.74-1.55.77-1.5h1.7l.88,1.72-.97,1.54ZM89.49,83.54l-1.17-.53v-5.97l1.17.44v6.06ZM96.69,81.7l-1.64-.21-.74-1.55.77-1.5h1.7l.88,1.72-.97,1.54ZM104.38,89.54l-1.17-.53v-5.97l1.17.44v6.06ZM112.03,87.65l-1.64-.21-.74-1.55.77-1.5h1.7l.88,1.72-.97,1.54ZM119.77,95.77l-1.17-.53v-5.97l1.17.44v6.06ZM127.95,94.15l-1.64-.21-.74-1.55.77-1.5h1.7l.88,1.72-.97,1.54ZM135.77,102.49l-1.17-.53v-5.97l1.17.44v6.06ZM143.68,100.87l-1.64-.21-.74-1.55.77-1.5h1.7l.88,1.72-.97,1.54ZM152.27,109.32l-1.17-.53v-5.97l1.17.44v6.06ZM160.73,107.7l-1.64-.21-.74-1.55.77-1.5h1.7l.88,1.72-.97,1.54ZM169.44,116.32l-1.17-.53v-5.97l1.17.44v6.06ZM178.34,115.08l-1.64-.21-.74-1.55.77-1.5h1.7l.88,1.72-.97,1.54ZM187.22,123.77l-1.17-.53v-5.97l1.17.44v6.06ZM196.51,122.58l-1.64-.21-.74-1.55.77-1.5h1.7l.88,1.72-.97,1.54ZM205.83,131.38l-1.17-.53v-5.97l1.17.44v6.06ZM215.73,130.19l-1.64-.21-.74-1.55.77-1.5h1.7l.88,1.72-.97,1.54ZM226.36,136.69l-1.64-.21-.74-1.55.77-1.5h1.7l.88,1.72-.97,1.54ZM227.12,134.04l.77-1.5h1.7l.88,1.72-.97,1.54-1.64-.21-.74-1.55ZM231.88,139.05l-1.64-.21-.74-1.55.77-1.5h1.7l.88,1.72-.97,1.54ZM233.72,137.76l-.74-1.55.77-1.5h1.7l.88,1.72-.97,1.54-1.64-.21ZM238.09,141.23l-1.64-.21-.74-1.55.77-1.5h1.7l.88,1.72-.97,1.54Z"/>
  <polygon class="cls-4" points="56.65 86.84 52.22 84.66 25.19 105.14 20.58 107.5 17.76 107.17 -5.68 95.95 -7.87 109.59 23.12 124.81 23.66 124.98 27.56 123.69 28.1 123.67 35.74 127.5 36.85 128 38.1 127.65 57.62 120.73 56.65 86.84"/>
  <polygon class="cls-4" points="50.21 83.67 49.62 82.89 53.24 81.64 53.24 79.03 -11.6 50.81 -4.25 94.42 18.32 105.22 20.21 105.45 24.12 103.44 50.21 83.67"/>
  <polygon points="49.5 75.22 55.24 77.72 55.24 83.06 55.2 83.08 56.59 84.09 73.84 78.92 73.84 67.68 49.5 75.22"/>
</svg>