<?xml version="1.0" encoding="UTF-8"?>
<svg id="Layer_1" data-name="Layer 1" xmlns="http://www.w3.org/2000/svg" viewBox="0 0 256 256">
  <path d="M199.11,110.27c-5.66-10.75-14.79-23.56-27.94-36.72-23-23.01-42.32-30.24-52.42-30.24-3.2,0-5.47.73-6.64,1.9l-10.51,10.51c-14.67-1.82-26.42.82-33.17,7.59-6.77,6.76-8.99,16.68-6.12,27.22,3.8,13.95,17.81,31.28,45.62,41.53.29,2.5,1.21,4.93,3.13,6.84,4.54,4.54,11.86,4.53,16.39,0,4.53-4.53,4.54-11.84.02-16.37-4.54-4.53-11.87-4.54-16.4,0l-1.31,1.98c-15.69-5.91-26.23-14.12-32.7-22.4l29.97-29.94c3.83,21.09,49.69,67.03,70.91,70.91l-54.97,54.91c-1.81,1.18-21.62-2.44-47.56-28.39-26.21-26.21-24.53-40.72-23.39-42.48l14.36-14.34c-3.39-2.77-7.15-8.52-8.82-13.05l-16.49,16.46c-3.44,3.45-5.29,8.22-5.29,14.06,0,12.62,8.66,30.25,28.69,50.26,21.35,21.35,43.11,32.78,57.42,32.78,5.01,0,9.12-1.51,11.95-4.34l62.47-62.41c7.03,6.75-6.01,27.33-6.01,35.91s6.92,15.44,15.45,15.44,15.45-6.92,15.45-15.45c0-24.6-11.01-52.61-22.07-72.16ZM73.88,68.78c4.07-4.09,11.36-6.11,20.52-5.88l-24.79,24.77c-1.82-7.56-.38-14.25,4.27-18.89ZM145.67,100.29l-.23-.22c-9.98-9.98-29.38-33.65-23.92-39.12,5.52-5.52,26.95,11.75,39.11,23.92,6.66,6.66,16.13,17.36,22.69,26.72-13.27-8.3-26.97-11.35-37.65-11.29Z"/>
</svg>